<!DOCTYPE svg PUBLIC "-//W3C//DTD SVG 1.1//EN" "http://www.w3.org/Graphics/SVG/1.1/DTD/svg11.dtd">
<!-- Uploaded to: SVG Repo, www.svgrepo.com, Transformed by: SVG Repo Mixer Tools -->
<svg width="800px" height="800px" viewBox="0 0 24 24" id="magicoon-Filled" xmlns="http://www.w3.org/2000/svg" fill="#000000">
<g id="SVGRepo_bgCarrier" stroke-width="0"/>
<g id="SVGRepo_tracerCarrier" stroke-linecap="round" stroke-linejoin="round"/>
<g id="SVGRepo_iconCarrier"> <defs> <style>.cls-1{fill:#1d1d20;}</style> </defs> <title>menu</title> <g id="menu-Filled"> <path id="menu-Filled-2" data-name="menu-Filled" class="cls-1" d="M2,5A1,1,0,0,1,3,4H16a1,1,0,0,1,0,2H3A1,1,0,0,1,2,5Zm19,6H3a1,1,0,0,0,0,2H21a1,1,0,0,0,0-2Zm-9,7H3a1,1,0,0,0,0,2h9a1,1,0,0,0,0-2Z"/> </g> </g>
</svg>